# Blender 3.6.2
# www.blender.org
mtllib spermato_tete.mtl
o BezierCurve
v 79.503906 18.867689 46.167473
v 79.598251 21.149935 42.543434
v 79.679024 23.146700 38.416977
v 79.738213 24.666594 34.031528
v 79.767799 25.518183 29.630556
v 79.759735 25.510061 25.457502
v 79.706032 24.450846 21.755804
v 79.598633 22.149118 18.768911
v 79.429543 18.413462 16.740246
v 78.544350 14.095514 50.932423
v 77.779167 16.242332 49.041168
v 76.987724 18.482094 46.160545
v 76.233826 20.634356 42.534168
v 75.581001 22.518713 38.405689
v 75.092964 23.954744 34.018738
v 74.833397 24.762016 29.616972
v 74.866020 24.760115 25.444025
v 75.254372 23.768641 21.743546
v 76.062164 21.607164 18.759176
v 74.810661 17.163237 46.131615
v 73.322807 18.870852 42.495487
v 72.035233 20.370693 38.358574
v 71.073776 21.519896 33.965332
v 70.564110 22.175631 29.560240
v 70.631821 22.195028 25.387766
v 71.402641 21.435266 21.692366
v 73.002296 19.753490 18.718515
v 75.556396 17.006849 16.710655
v 75.400375 14.065935 48.992443
v 73.304146 15.111860 46.085091
v 71.308365 16.127916 42.433277
v 69.581680 17.029673 38.282803
v 68.292549 17.732769 33.879444
v 67.609741 18.152769 29.469004
v 67.701736 18.205286 25.297277
v 68.737289 17.805922 21.610052
v 70.884895 16.870279 18.653126
v 72.697594 12.640301 46.028057
v 70.497292 12.823109 42.357018
v 68.593689 13.004302 38.189911
v 67.172684 13.169889 33.774143
v 66.420128 13.305892 29.357153
v 66.521927 13.398314 25.186348
v 67.664070 13.433168 21.509142
v 70.032257 13.396481 18.572962
v 73.812553 13.274254 16.625191
v 77.361504 11.563743 50.874451
v 75.257683 10.845452 48.917591
v 73.083176 10.124814 45.969189
v 71.012909 9.459579 42.278301
v 69.221802 8.907393 38.094032
v 67.884621 8.525910 33.665466
v 67.176414 8.372875 29.241709
v 67.271988 8.505894 25.071856
v 68.346359 8.982691 21.404993
v 70.574333 9.860943 18.490225
v 74.402367 7.948392 45.917454
v 72.776871 6.549376 42.209126
v 71.370270 5.362670 38.009773
v 70.320015 4.507885 33.569958
v 69.763435 4.104722 29.140255
v 69.837738 4.272916 24.971237
v 70.680298 5.132089 21.313463
v 72.428444 6.801938 18.417509
v 75.219460 9.402189 16.533915
v 79.190712 13.052505 15.913296
v 77.434677 8.467377 48.860466
v 76.454277 6.442324 45.880730
v 75.520531 4.535606 42.160019
v 74.712181 2.909768 37.949959
v 74.108131 1.727454 33.502155
v 73.787331 1.151259 29.068235
v 73.828499 1.343740 24.899809
v 74.310570 2.467492 21.248487
v 75.312393 4.685163 18.365892
v 78.926506 5.835917 45.864601
v 78.826187 3.724745 42.138451
v 78.738617 1.922153 37.923695
v 78.672241 0.607971 33.472382
v 78.635468 -0.037943 29.036608
v 78.636734 0.164343 24.868444
v 78.684464 1.394643 21.219954
v 78.787094 3.832860 18.343224
v 79.893990 10.381235 50.844868
v 80.656013 8.324787 48.854530
v 81.442688 6.221512 45.871529
v 82.190598 4.240356 42.147717
v 82.836647 2.550142 37.934978
v 83.317490 1.319805 33.485172
v 83.569870 0.718240 29.050196
v 83.530457 0.914286 24.881918
v 83.136131 2.076834 21.232212
v 82.323563 4.374815 18.352962
v 81.029549 7.977060 16.496016
v 83.619751 7.540390 45.900459
v 85.101624 6.003828 42.186398
v 86.382408 4.698164 37.982090
v 87.336678 3.754649 33.538582
v 87.839149 3.304609 29.106926
v 87.764664 3.479389 24.938181
v 86.987854 4.410244 21.283392
v 85.383430 6.228491 18.393621
v 83.034805 10.501200 48.903252
v 85.126266 9.591730 45.946980
v 87.116058 8.746779 42.248608
v 88.835976 8.039181 38.057865
v 90.117905 7.541800 33.624474
v 90.793526 7.327471 29.198160
v 90.694740 7.469098 25.028666
v 89.653206 8.039552 21.365702
v 87.500832 9.111698 18.459011
v 84.069412 10.758404 16.558283
v 85.732819 12.063305 46.004021
v 87.927132 12.051587 42.324875
v 89.823959 12.064553 38.150761
v 91.237770 12.104659 33.729767
v 91.983139 12.174354 29.310013
v 91.874550 12.276091 25.139597
v 90.726425 12.412323 21.466616
v 88.353462 12.585500 18.539179
v 81.076836 12.913041 50.902836
v 83.177498 13.721685 48.978100
v 85.347229 14.578775 46.062885
v 87.411514 15.415117 42.403584
v 89.195839 16.161461 38.246635
v 90.525833 16.748623 33.838444
v 91.226852 17.107368 29.425455
v 91.124496 17.168503 25.254089
v 90.044136 16.862782 21.570765
v 87.811401 16.121035 18.621912
v 84.028046 16.755232 46.114616
v 85.647552 18.325304 42.472759
v 87.047379 19.706186 38.330891
v 88.090446 20.766665 33.933952
v 88.639832 21.375517 29.526911
v 88.558746 21.401501 25.354708
v 87.710213 20.713419 21.662294
v 85.957283 19.180044 18.694624
v 83.163109 16.670141 16.696629
v 81.000504 16.099743 49.035225
v 81.976135 18.261286 46.151344
v 82.903893 20.339109 42.521870
v 83.705467 22.159086 38.390709
v 84.302322 23.547098 34.001755
v 84.615997 24.328995 29.598932
v 84.567978 24.330662 25.426134
v 84.079926 23.377981 21.727270
v 83.073334 21.296818 18.746248
v 76.510818 14.448591 19.485241
v 76.510818 11.324191 19.404947
v 79.191345 9.752341 19.740223
v 81.871872 11.304891 20.155794
v 81.871872 14.429293 20.236088
v 79.191345 16.001144 19.900812
v 81.910530 11.356233 17.475576
v 76.446533 14.490150 17.045444
v 76.445473 11.365032 17.001152
v 79.142868 9.804648 16.761101
v 79.144981 16.054886 16.849686
vn -0.3805 -0.1597 0.9109
vn 0.1392 -0.4024 0.9048
vn 0.3820 0.1172 0.9167
vn -0.1377 0.3598 0.9228
vn -0.6316 0.2785 0.7235
vn -0.6648 -0.2581 0.7010
vn -0.2947 -0.6487 0.7017
vn 0.2423 -0.6816 0.6904
vn 0.6328 -0.3119 0.7088
vn 0.2959 0.6153 0.7306
vn -0.2411 0.6488 0.7218
vn 0.0368 0.8071 0.5892
vn -0.2816 0.7630 0.5818
vn -0.5541 0.5925 0.5847
vn -0.7479 0.3363 0.5722
vn -0.8202 0.0231 0.5716
vn -0.7759 -0.2951 0.5576
vn -0.6055 -0.5677 0.5577
vn -0.3491 -0.7613 0.5464
vn -0.0359 -0.8337 0.5511
vn 0.2825 -0.7893 0.5452
vn 0.5550 -0.6191 0.5556
vn 0.7489 -0.3626 0.5548
vn 0.8211 -0.0496 0.5686
vn 0.6660 0.2252 0.7112
vn 0.6064 0.5412 0.5825
vn 0.3500 0.7351 0.5806
vn -0.3024 0.8226 0.4816
vn -0.5984 0.6433 0.4776
vn -0.8856 0.0285 0.4635
vn -0.8332 -0.3135 0.4555
vn -0.6539 -0.6093 0.4485
vn -0.3749 -0.8141 0.4435
vn 0.3032 -0.8441 0.4423
vn 0.5991 -0.6648 0.4462
vn 0.8039 -0.3859 0.4525
vn 0.8864 -0.0500 0.4603
vn 0.7768 0.2688 0.5694
vn 0.8339 0.2920 0.4683
vn 0.6546 0.5878 0.4753
vn 0.3757 0.7926 0.4803
vn 0.0416 0.9240 0.3800
vn 0.0396 0.8750 0.4825
vn -0.3184 0.8689 0.3790
vn -0.6300 0.6801 0.3749
vn -0.8032 0.3644 0.4713
vn -0.9323 0.0329 0.3601
vn -0.6884 -0.6384 0.3442
vn -0.3948 -0.8540 0.3390
vn -0.0389 -0.8965 0.4413
vn -0.0410 -0.9407 0.3367
vn 0.3190 -0.8855 0.3377
vn 0.6306 -0.6968 0.3418
vn 0.9329 -0.0496 0.3566
vn 0.6890 0.6218 0.3725
vn 0.3954 0.8373 0.3777
vn 0.0432 0.9653 0.2575
vn -0.3317 0.9079 0.2565
vn -0.8805 0.4057 0.2453
vn -0.8455 0.3866 0.3682
vn -0.9708 0.0375 0.2368
vn -0.8772 -0.3270 0.3516
vn -0.9134 -0.3373 0.2280
vn -0.4111 -0.8859 0.2148
vn -0.0428 -0.9762 0.2124
vn 0.3321 -0.9188 0.2134
vn 0.8809 -0.4167 0.2247
vn 0.8461 -0.4033 0.3485
vn 0.9138 0.3263 0.2420
vn 0.8777 0.3103 0.3651
vn 0.4115 0.8750 0.2551
vn 0.0442 0.9946 0.0936
vn -0.6734 0.7340 0.0881
vn -0.6560 0.7114 0.2522
vn -0.9037 0.4204 0.0810
vn -0.9965 0.0425 0.0723
vn -0.9375 -0.3421 0.0633
vn -0.7168 -0.6615 0.2203
vn -0.7358 -0.6749 0.0554
vn -0.4221 -0.9052 0.0498
vn -0.0441 -0.9979 0.0473
vn 0.6735 -0.7373 0.0528
vn 0.6564 -0.7223 0.2178
vn 0.9038 -0.4237 0.0599
vn 0.9966 -0.0458 0.0686
vn 0.9712 -0.0485 0.2332
vn 0.9376 0.3389 0.0776
vn 0.7172 0.6506 0.2497
vn 0.7359 0.6716 0.0855
vn -0.3371 0.9312 -0.1384
vn -0.3405 0.9357 0.0926
vn -0.6665 0.7317 -0.1428
vn -0.8944 0.4213 -0.1498
vn -0.9862 0.0474 -0.1585
vn -0.7283 -0.6625 -0.1752
vn -0.4178 -0.8904 -0.1807
vn -0.0438 -0.9821 -0.1832
vn 0.3369 -0.9238 -0.1821
vn 0.3406 -0.9389 0.0484
vn 0.6663 -0.7242 -0.1778
vn 0.8942 -0.4139 -0.1707
vn 0.9860 -0.0399 -0.1621
vn 0.7280 0.6700 -0.1454
vn 0.4222 0.9019 0.0912
vn 0.4176 0.8978 -0.1398
vn 0.0435 0.9896 -0.1374
vn -0.3031 0.8440 -0.4425
vn -0.5990 0.6647 -0.4465
vn -0.8038 0.3859 -0.4528
vn -0.8862 0.0500 -0.4605
vn -0.9279 -0.3332 -0.1674
vn -0.8338 -0.2919 -0.4685
vn -0.3756 -0.7924 -0.4806
vn 0.3024 -0.8225 -0.4818
vn 0.8030 -0.3644 -0.4716
vn 0.8855 -0.0285 -0.4638
vn 0.9276 0.3407 -0.1532
vn 0.8331 0.3134 -0.4558
vn 0.6538 0.6093 -0.4488
vn 0.0389 0.8964 -0.4416
vn 0.0279 0.6625 -0.7485
vn -0.4364 0.4938 -0.7521
vn -0.5644 0.2817 -0.7760
vn -0.6455 0.0463 -0.7623
vn -0.6034 -0.2011 -0.7717
vn -0.6545 -0.5877 -0.4756
vn -0.4768 -0.4179 -0.7733
vn -0.0495 -0.5814 -0.8121
vn -0.0396 -0.8749 -0.4827
vn 0.4324 -0.4551 -0.7784
vn 0.5983 -0.6432 -0.4779
vn 0.5843 -0.2553 -0.7704
vn 0.6279 -0.0011 -0.7783
vn 0.5933 0.2246 -0.7730
vn 0.4756 0.4535 -0.7538
vn 0.3749 0.8140 -0.4438
vn 0.0130 0.3331 -0.9428
vn -0.2196 0.6205 -0.7528
vn -0.2735 0.1069 -0.9559
vn -0.2515 0.1614 -0.9543
vn -0.1552 -0.2279 -0.9612
vn -0.2363 -0.5392 -0.8083
vn -0.1403 0.1470 -0.9791
vn -0.0192 -0.2650 -0.9641
vn 0.2198 -0.5888 -0.7778
vn 0.2862 -0.0885 -0.9541
vn 0.2399 0.2136 -0.9470
vn 0.2708 0.5988 -0.7538
vn -0.0245 0.0074 -0.9997
vn 0.1236 -0.1442 -0.9818
vn -0.9999 0.0004 -0.0144
vn -0.7498 0.6616 0.0069
vn -0.8775 0.4796 -0.0035
vn -0.0449 0.9989 0.0144
vn 0.8524 -0.5221 -0.0298
vn 0.5021 -0.8644 -0.0250
vn 0.5037 -0.8636 -0.0229
vn 0.8550 0.5184 -0.0125
vn 0.8623 0.5062 -0.0148
vt 0.750000 -1.000000
vt 0.750000 -0.960648
vt 0.812500 -0.960648
vt 0.812500 -1.000000
vt 0.875000 -0.960648
vt 0.062500 -0.960648
vt 0.125000 -0.851852
vt 0.125000 -0.960648
vt 0.187500 -0.960648
vt 0.187500 -0.851852
vt 0.250000 -0.851852
vt 0.375000 -0.960648
vt 0.375000 -0.851852
vt 0.437500 -0.851852
vt 0.500000 -0.851852
vt 0.562500 -0.960648
vt 0.500000 -0.960648
vt 0.625000 -0.960648
vt 0.625000 -0.851852
vt 0.687500 -0.851852
vt 0.750000 -0.851852
vt 0.875000 -0.851852
vt 0.937500 -0.960648
vt 0.937500 -0.851852
vt 1.000000 -0.851852
vt 0.000000 -0.851852
vt 0.000000 -0.687500
vt 0.062500 -0.687500
vt 0.062500 -0.851852
vt 0.125000 -0.687500
vt 0.187500 -0.687500
vt 0.250000 -0.687500
vt 0.312500 -0.687500
vt 0.312500 -0.851852
vt 0.375000 -0.687500
vt 0.437500 -0.687500
vt 0.500000 -0.687500
vt 0.562500 -0.851852
vt 0.562500 -0.687500
vt 0.625000 -0.687500
vt 0.687500 -0.687500
vt 0.750000 -0.687500
vt 0.812500 -0.851852
vt 0.875000 -0.687500
vt 0.937500 -0.687500
vt 1.000000 -0.687500
vt 0.062500 -0.481481
vt 0.125000 -0.481481
vt 0.250000 -0.481481
vt 0.312500 -0.481481
vt 0.375000 -0.481481
vt 0.437500 -0.481481
vt 0.562500 -0.481481
vt 0.625000 -0.481481
vt 0.687500 -0.481481
vt 0.750000 -0.481481
vt 0.812500 -0.687500
vt 0.812500 -0.481481
vt 0.875000 -0.481481
vt 0.937500 -0.481481
vt 0.000000 -0.247685
vt 0.000000 -0.481481
vt 0.062500 -0.247685
vt 0.125000 -0.247685
vt 0.187500 -0.481481
vt 0.250000 -0.247685
vt 0.375000 -0.247685
vt 0.437500 -0.247685
vt 0.500000 -0.481481
vt 0.500000 -0.247685
vt 0.562500 -0.247685
vt 0.625000 -0.247685
vt 0.750000 -0.247685
vt 0.875000 -0.247685
vt 0.937500 -0.247685
vt 1.000000 -0.247685
vt 1.000000 -0.481481
vt 0.000000 0.000000
vt 0.062500 0.000000
vt 0.187500 0.000000
vt 0.187500 -0.247685
vt 0.250000 0.000000
vt 0.312500 -0.247685
vt 0.312500 0.000000
vt 0.437500 0.000000
vt 0.500000 0.000000
vt 0.562500 0.000000
vt 0.687500 0.000000
vt 0.687500 -0.247685
vt 0.812500 0.000000
vt 0.812500 -0.247685
vt 0.937500 0.000000
vt 1.000000 0.000000
vt 0.000000 0.247685
vt 0.125000 0.247685
vt 0.125000 0.000000
vt 0.187500 0.247685
vt 0.250000 0.247685
vt 0.312500 0.247685
vt 0.375000 0.000000
vt 0.375000 0.247685
vt 0.437500 0.247685
vt 0.500000 0.247685
vt 0.625000 0.247685
vt 0.625000 0.000000
vt 0.687500 0.247685
vt 0.750000 0.247685
vt 0.750000 0.000000
vt 0.812500 0.247685
vt 0.875000 0.000000
vt 0.875000 0.247685
vt 1.000000 0.247685
vt 0.062500 0.481481
vt 0.062500 0.247685
vt 0.125000 0.481481
vt 0.187500 0.481481
vt 0.250000 0.481481
vt 0.375000 0.481481
vt 0.437500 0.481481
vt 0.500000 0.481481
vt 0.562500 0.481481
vt 0.562500 0.247685
vt 0.625000 0.481481
vt 0.687500 0.481481
vt 0.750000 0.481481
vt 0.875000 0.481481
vt 0.937500 0.247685
vt 0.937500 0.481481
vt 0.000000 0.481481
vt 0.062500 0.687500
vt 0.125000 0.687500
vt 0.187500 0.687500
vt 0.250000 0.687500
vt 0.312500 0.481481
vt 0.312500 0.687500
vt 0.437500 0.687500
vt 0.562500 0.687500
vt 0.687500 0.687500
vt 0.750000 0.687500
vt 0.812500 0.481481
vt 0.812500 0.687500
vt 0.875000 0.687500
vt 1.000000 0.687500
vt 1.000000 0.481481
vt 0.000000 0.851852
vt 0.000000 0.687500
vt 0.125000 0.851852
vt 0.187500 0.851852
vt 0.250000 0.851852
vt 0.312500 0.851852
vt 0.375000 0.687500
vt 0.375000 0.851852
vt 0.500000 0.851852
vt 0.500000 0.687500
vt 0.625000 0.851852
vt 0.625000 0.687500
vt 0.687500 0.851852
vt 0.750000 0.851852
vt 0.812500 0.851852
vt 0.875000 0.851852
vt 0.937500 0.687500
vt 1.000000 0.851852
vt 0.000000 0.960648
vt 0.062500 0.851852
vt 0.125000 0.960648
vt 0.250000 0.960648
vt 0.375000 0.960648
vt 0.437500 0.960648
vt 0.437500 0.851852
vt 0.500000 0.960648
vt 0.562500 0.960648
vt 0.562500 0.851852
vt 0.625000 0.960648
vt 0.687500 0.960648
vt 0.750000 0.960648
vt 0.875000 0.960648
vt 0.937500 0.851852
vt 1.000000 0.960648
vt 0.062500 1.000000
vt 0.062500 0.960648
vt 0.187500 1.000000
vt 0.187500 0.960648
vt 0.250000 1.000000
vt 0.312500 1.000000
vt 0.312500 0.960648
vt 0.500000 1.000000
vt 0.562500 1.000000
vt 0.687500 1.000000
vt 0.812500 1.000000
vt 0.812500 0.960648
vt 0.937500 1.000000
vt 0.937500 0.960648
vt 0.023810 0.750000
vt 0.023810 0.666667
vt 0.011905 0.666667
vt 0.035714 0.583333
vt 0.023810 0.500000
vt 0.023810 0.583333
vt 0.035714 1.000000
vt 0.047619 0.916667
vt 0.035714 0.916667
vt 0.035714 0.166667
vt 0.047619 0.083333
vt 0.035714 0.083333
vt 0.047619 0.416667
vt 0.035714 0.333333
vt 0.035714 0.416667
vt 0.035714 0.500000
vt 0.047619 1.000000
vt 0.047619 0.166667
vt 0.047619 0.333333
s 1
usemtl Material.002
f 47/1/1 84/2/2 121/3/3
f 47/4/1 121/3/3 10/5/4
f 10/6/4 29/7/5 47/8/1
f 47/9/1 29/10/5 48/11/6
f 47/12/1 48/13/6 67/14/7
f 67/15/7 84/16/2 47/17/1
f 84/18/2 85/19/8 103/20/9
f 103/21/9 121/3/3 84/2/2
f 121/3/3 140/22/10 10/5/4
f 10/23/4 140/24/10 11/25/11
f 11/26/11 1/27/12 12/28/13
f 11/29/11 20/30/14 29/7/5
f 29/7/5 20/30/14 30/31/15
f 29/10/5 38/32/16 48/11/6
f 48/11/6 38/32/16 49/33/17
f 48/34/6 49/33/17 57/35/18
f 57/35/18 67/14/7 48/13/6
f 67/14/7 68/36/19 76/37/20
f 76/37/20 85/38/8 67/15/7
f 85/38/8 86/39/21 95/40/22
f 95/40/22 103/20/9 85/19/8
f 103/20/9 104/41/23 113/42/24
f 113/42/24 122/43/25 103/21/9
f 122/43/25 131/44/26 140/22/10
f 140/22/10 131/44/26 141/45/27
f 140/24/10 1/46/12 11/25/11
f 1/27/12 13/47/28 12/28/13
f 12/28/13 21/48/29 20/30/14
f 21/48/29 30/31/15 20/30/14
f 30/31/15 39/49/30 38/32/16
f 39/49/30 49/33/17 38/32/16
f 50/50/31 57/35/18 49/33/17
f 58/51/32 68/36/19 57/35/18
f 69/52/33 76/37/20 68/36/19
f 76/37/20 87/53/34 86/39/21
f 86/39/21 96/54/35 95/40/22
f 95/40/22 105/55/36 104/41/23
f 104/41/23 114/56/37 113/42/24
f 114/56/37 123/57/38 113/42/24
f 124/58/39 131/44/26 123/57/38
f 132/59/40 141/45/27 131/44/26
f 142/60/41 1/46/12 141/45/27
f 3/61/42 13/47/28 2/62/43
f 14/63/44 21/48/29 13/47/28
f 22/64/45 31/65/46 21/48/29
f 31/65/46 40/66/47 39/49/30
f 40/66/47 50/50/31 39/49/30
f 50/50/31 59/67/48 58/51/32
f 58/51/32 70/68/49 69/52/33
f 70/68/49 77/69/50 69/52/33
f 78/70/51 87/53/34 77/69/50
f 88/71/52 96/54/35 87/53/34
f 97/72/53 105/55/36 96/54/35
f 105/55/36 115/73/54 114/56/37
f 115/73/54 124/58/39 114/56/37
f 124/58/39 133/74/55 132/59/40
f 132/59/40 143/75/56 142/60/41
f 142/60/41 3/76/42 2/77/43
f 4/78/57 14/63/44 3/61/42
f 15/79/58 22/64/45 14/63/44
f 22/64/45 33/80/59 32/81/60
f 32/81/60 41/82/61 40/66/47
f 41/82/61 51/83/62 40/66/47
f 52/84/63 59/67/48 51/83/62
f 59/67/48 71/85/64 70/68/49
f 70/68/49 79/86/65 78/70/51
f 79/86/65 88/71/52 78/70/51
f 89/87/66 97/72/53 88/71/52
f 97/72/53 107/88/67 106/89/68
f 107/88/67 115/73/54 106/89/68
f 115/73/54 126/90/69 125/91/70
f 126/90/69 133/74/55 125/91/70
f 133/74/55 144/92/71 143/75/56
f 143/75/56 4/93/57 3/76/42
f 5/94/72 15/79/58 4/78/57
f 15/79/58 24/95/73 23/96/74
f 23/96/74 34/97/75 33/80/59
f 33/80/59 42/98/76 41/82/61
f 41/82/61 53/99/77 52/84/63
f 53/99/77 60/100/78 52/84/63
f 61/101/79 71/85/64 60/100/78
f 72/102/80 79/86/65 71/85/64
f 80/103/81 89/87/66 79/86/65
f 89/87/66 99/104/82 98/105/83
f 98/105/83 108/106/84 107/88/67
f 107/88/67 117/107/85 116/108/86
f 116/108/86 127/109/87 126/90/69
f 127/109/87 134/110/88 126/90/69
f 135/111/89 144/92/71 134/110/88
f 144/92/71 5/112/72 4/93/57
f 5/94/72 17/113/90 16/114/91
f 16/114/91 25/115/92 24/95/73
f 25/115/92 34/97/75 24/95/73
f 35/116/93 42/98/76 34/97/75
f 43/117/94 53/99/77 42/98/76
f 53/99/77 62/118/95 61/101/79
f 61/101/79 73/119/96 72/102/80
f 72/102/80 81/120/97 80/103/81
f 80/103/81 91/121/98 90/122/99
f 90/122/99 100/123/100 99/104/82
f 100/123/100 108/106/84 99/104/82
f 109/124/101 117/107/85 108/106/84
f 118/125/102 127/109/87 117/107/85
f 127/109/87 136/126/103 135/111/89
f 136/126/103 145/127/104 135/111/89
f 146/128/105 5/112/72 145/127/104
f 6/129/106 18/130/107 17/113/90
f 17/113/90 26/131/108 25/115/92
f 25/115/92 36/132/109 35/116/93
f 35/116/93 44/133/110 43/117/94
f 44/133/110 54/134/111 43/117/94
f 55/135/112 62/118/95 54/134/111
f 62/118/95 74/136/113 73/119/96
f 74/136/113 81/120/97 73/119/96
f 81/120/97 92/137/114 91/121/98
f 92/137/114 100/123/100 91/121/98
f 100/123/100 110/138/115 109/124/101
f 109/124/101 119/139/116 118/125/102
f 119/139/116 128/140/117 118/125/102
f 129/141/118 136/126/103 128/140/117
f 137/142/119 146/128/105 136/126/103
f 146/128/105 7/143/120 6/144/106
f 8/145/121 18/130/107 7/146/120
f 18/130/107 27/147/122 26/131/108
f 26/131/108 37/148/123 36/132/109
f 36/132/109 45/149/124 44/133/110
f 45/149/124 55/135/112 44/133/110
f 56/150/125 63/151/126 55/135/112
f 64/152/127 74/136/113 63/151/126
f 74/136/113 83/153/128 82/154/129
f 83/153/128 92/137/114 82/154/129
f 92/137/114 102/155/130 101/156/131
f 101/156/131 111/157/132 110/138/115
f 110/138/115 120/158/133 119/139/116
f 120/158/133 129/141/118 119/139/116
f 130/159/134 137/142/119 129/141/118
f 138/160/135 147/161/136 137/142/119
f 147/161/136 8/162/121 7/143/120
f 9/163/137 19/164/138 8/145/121
f 19/164/138 28/165/139 27/147/122
f 28/165/139 37/148/123 27/147/122
f 37/148/123 46/166/140 45/149/124
f 46/166/140 56/150/125 45/149/124
f 56/150/125 65/167/141 64/152/127
f 64/152/127 65/168/141 75/169/142
f 75/169/142 158/170/143 83/153/128
f 83/153/128 94/171/144 93/172/145
f 93/172/145 94/173/144 102/155/130
f 102/155/130 112/174/146 111/157/132
f 111/157/132 112/175/146 120/158/133
f 112/175/146 130/159/134 120/158/133
f 130/159/134 139/176/147 138/160/135
f 139/176/147 148/177/148 138/160/135
f 148/177/148 9/178/137 8/162/121
f 9/163/137 66/179/149 28/180/139
f 28/165/139 66/181/149 156/182/150
f 156/182/150 66/183/149 46/166/140
f 46/166/140 66/184/149 65/185/141
f 65/168/141 66/186/149 158/170/143
f 158/170/143 66/187/149 94/171/144
f 94/173/144 66/188/149 112/174/146
f 112/175/146 66/189/149 139/190/147
f 139/176/147 66/191/149 9/192/137
f 153/193/151 155/194/152 152/195/153
f 155/196/152 151/197/154 152/198/153
f 149/199/155 159/200/156 154/201/157
f 150/202/158 156/203/150 149/204/155
f 158/205/143 150/206/158 151/207/154
f 10/6/4 11/29/11 29/7/5
f 67/15/7 85/38/8 84/16/2
f 103/21/9 122/43/25 121/3/3
f 121/3/3 122/43/25 140/22/10
f 11/29/11 12/28/13 20/30/14
f 29/10/5 30/31/15 38/32/16
f 57/35/18 68/36/19 67/14/7
f 76/37/20 86/39/21 85/38/8
f 95/40/22 104/41/23 103/20/9
f 113/42/24 123/57/38 122/43/25
f 122/43/25 123/57/38 131/44/26
f 140/24/10 141/45/27 1/46/12
f 1/27/12 2/62/43 13/47/28
f 12/28/13 13/47/28 21/48/29
f 21/48/29 31/65/46 30/31/15
f 30/31/15 31/65/46 39/49/30
f 39/49/30 50/50/31 49/33/17
f 50/50/31 58/51/32 57/35/18
f 58/51/32 69/52/33 68/36/19
f 69/52/33 77/69/50 76/37/20
f 76/37/20 77/69/50 87/53/34
f 86/39/21 87/53/34 96/54/35
f 95/40/22 96/54/35 105/55/36
f 104/41/23 105/55/36 114/56/37
f 114/56/37 124/58/39 123/57/38
f 124/58/39 132/59/40 131/44/26
f 132/59/40 142/60/41 141/45/27
f 142/60/41 2/77/43 1/46/12
f 3/61/42 14/63/44 13/47/28
f 14/63/44 22/64/45 21/48/29
f 22/64/45 32/81/60 31/65/46
f 31/65/46 32/81/60 40/66/47
f 40/66/47 51/83/62 50/50/31
f 50/50/31 51/83/62 59/67/48
f 58/51/32 59/67/48 70/68/49
f 70/68/49 78/70/51 77/69/50
f 78/70/51 88/71/52 87/53/34
f 88/71/52 97/72/53 96/54/35
f 97/72/53 106/89/68 105/55/36
f 105/55/36 106/89/68 115/73/54
f 115/73/54 125/91/70 124/58/39
f 124/58/39 125/91/70 133/74/55
f 132/59/40 133/74/55 143/75/56
f 142/60/41 143/75/56 3/76/42
f 4/78/57 15/79/58 14/63/44
f 15/79/58 23/96/74 22/64/45
f 22/64/45 23/96/74 33/80/59
f 32/81/60 33/80/59 41/82/61
f 41/82/61 52/84/63 51/83/62
f 52/84/63 60/100/78 59/67/48
f 59/67/48 60/100/78 71/85/64
f 70/68/49 71/85/64 79/86/65
f 79/86/65 89/87/66 88/71/52
f 89/87/66 98/105/83 97/72/53
f 97/72/53 98/105/83 107/88/67
f 107/88/67 116/108/86 115/73/54
f 115/73/54 116/108/86 126/90/69
f 126/90/69 134/110/88 133/74/55
f 133/74/55 134/110/88 144/92/71
f 143/75/56 144/92/71 4/93/57
f 5/94/72 16/114/91 15/79/58
f 15/79/58 16/114/91 24/95/73
f 23/96/74 24/95/73 34/97/75
f 33/80/59 34/97/75 42/98/76
f 41/82/61 42/98/76 53/99/77
f 53/99/77 61/101/79 60/100/78
f 61/101/79 72/102/80 71/85/64
f 72/102/80 80/103/81 79/86/65
f 80/103/81 90/122/99 89/87/66
f 89/87/66 90/122/99 99/104/82
f 98/105/83 99/104/82 108/106/84
f 107/88/67 108/106/84 117/107/85
f 116/108/86 117/107/85 127/109/87
f 127/109/87 135/111/89 134/110/88
f 135/111/89 145/127/104 144/92/71
f 144/92/71 145/127/104 5/112/72
f 5/94/72 6/129/106 17/113/90
f 16/114/91 17/113/90 25/115/92
f 25/115/92 35/116/93 34/97/75
f 35/116/93 43/117/94 42/98/76
f 43/117/94 54/134/111 53/99/77
f 53/99/77 54/134/111 62/118/95
f 61/101/79 62/118/95 73/119/96
f 72/102/80 73/119/96 81/120/97
f 80/103/81 81/120/97 91/121/98
f 90/122/99 91/121/98 100/123/100
f 100/123/100 109/124/101 108/106/84
f 109/124/101 118/125/102 117/107/85
f 118/125/102 128/140/117 127/109/87
f 127/109/87 128/140/117 136/126/103
f 136/126/103 146/128/105 145/127/104
f 146/128/105 6/144/106 5/112/72
f 6/129/106 7/146/120 18/130/107
f 17/113/90 18/130/107 26/131/108
f 25/115/92 26/131/108 36/132/109
f 35/116/93 36/132/109 44/133/110
f 44/133/110 55/135/112 54/134/111
f 55/135/112 63/151/126 62/118/95
f 62/118/95 63/151/126 74/136/113
f 74/136/113 82/154/129 81/120/97
f 81/120/97 82/154/129 92/137/114
f 92/137/114 101/156/131 100/123/100
f 100/123/100 101/156/131 110/138/115
f 109/124/101 110/138/115 119/139/116
f 119/139/116 129/141/118 128/140/117
f 129/141/118 137/142/119 136/126/103
f 137/142/119 147/161/136 146/128/105
f 146/128/105 147/161/136 7/143/120
f 8/145/121 19/164/138 18/130/107
f 18/130/107 19/164/138 27/147/122
f 26/131/108 27/147/122 37/148/123
f 36/132/109 37/148/123 45/149/124
f 45/149/124 56/150/125 55/135/112
f 56/150/125 64/152/127 63/151/126
f 64/152/127 75/169/142 74/136/113
f 74/136/113 75/169/142 83/153/128
f 83/153/128 93/172/145 92/137/114
f 92/137/114 93/172/145 102/155/130
f 101/156/131 102/155/130 111/157/132
f 110/138/115 111/157/132 120/158/133
f 120/158/133 130/159/134 129/141/118
f 130/159/134 138/160/135 137/142/119
f 138/160/135 148/177/148 147/161/136
f 147/161/136 148/177/148 8/162/121
f 9/163/137 28/180/139 19/164/138
f 28/165/139 156/182/150 37/148/123
f 37/148/123 156/182/150 46/166/140
f 46/166/140 65/185/141 56/150/125
f 75/169/142 65/168/141 158/170/143
f 83/153/128 158/170/143 94/171/144
f 102/155/130 94/173/144 112/174/146
f 112/175/146 139/190/147 130/159/134
f 139/176/147 9/192/137 148/177/148
f 155/196/152 158/208/143 151/197/154
f 149/199/155 156/209/150 159/200/156
f 150/202/158 157/210/159 156/203/150
f 158/205/143 157/211/159 150/206/158
l 153 154
l 157 65
